name rise32.9588peak41.5061fall63.4684.mot
datacolumns 19
datarows 30
range 8.40330500000000 8.45163400000000
endheader
time	ground_force1_vx	ground_force1_vy	ground_force1_vz	ground_force1_px	ground_force1_py	ground_force1_pz	ground_force2_vx	ground_force2_vy	ground_force2_vz	ground_force2_px	ground_force2_py	ground_force2_pz	ground_torque1_x	ground_torque1_y	ground_torque1_z	ground_torque2_x	ground_torque2_y	ground_torque2_z	
8.40330500000000	7.26549200000000	709.28311900000006	27.68080500000000	0.18613700000000	0.00000000000000	0.07474300000000	0.00000000000000	0.00000000000000	0.00000000000000	0.00000000000000	0.00000000000000	0.00000000000000	0.00000000000000	10.00509300000000	0.00000000000000	0.00000000000000	0.00000000000000	0.00000000000000	
8.40497100000000	6.74236300000000	710.17713500000002	27.77009500000000	0.18517000000000	0.00000000000000	0.07474500000000	0.00000000000000	0.00000000000000	0.00000000000000	0.00000000000000	0.00000000000000	0.00000000000000	0.00000000000000	10.07758600000000	0.00000000000000	0.00000000000000	0.00000000000000	0.00000000000000	
8.40663800000000	6.20669700000000	711.09870500000000	27.86390700000000	0.18418800000000	0.00000000000000	0.07474900000000	0.00000000000000	0.00000000000000	0.00000000000000	0.00000000000000	0.00000000000000	0.00000000000000	0.00000000000000	10.15308000000000	0.00000000000000	0.00000000000000	0.00000000000000	0.00000000000000	
8.40830500000000	5.65827500000000	712.04844000000003	27.96221000000000	0.18319100000000	0.00000000000000	0.07475400000000	0.00000000000000	0.00000000000000	0.00000000000000	0.00000000000000	0.00000000000000	0.00000000000000	0.00000000000000	10.23150500000000	0.00000000000000	0.00000000000000	0.00000000000000	0.00000000000000	
8.40997000000000	5.09691800000000	713.02699900000005	28.06498000000000	0.18217900000000	0.00000000000000	0.07476200000000	0.00000000000000	0.00000000000000	0.00000000000000	0.00000000000000	0.00000000000000	0.00000000000000	0.00000000000000	10.31278900000000	0.00000000000000	0.00000000000000	0.00000000000000	0.00000000000000	
8.41163900000000	4.52248400000000	714.03507600000000	28.17219800000000	0.18115100000000	0.00000000000000	0.07477300000000	0.00000000000000	0.00000000000000	0.00000000000000	0.00000000000000	0.00000000000000	0.00000000000000	0.00000000000000	10.39685600000000	0.00000000000000	0.00000000000000	0.00000000000000	0.00000000000000	
8.41330500000000	3.93487400000000	715.07339500000000	28.28385300000000	0.18010700000000	0.00000000000000	0.07478600000000	0.00000000000000	0.00000000000000	0.00000000000000	0.00000000000000	0.00000000000000	0.00000000000000	0.00000000000000	10.48363100000000	0.00000000000000	0.00000000000000	0.00000000000000	0.00000000000000	
8.41497300000000	3.33402800000000	716.14269999999999	28.39993700000000	0.17904700000000	0.00000000000000	0.07480100000000	0.00000000000000	0.00000000000000	0.00000000000000	0.00000000000000	0.00000000000000	0.00000000000000	0.00000000000000	10.57303400000000	0.00000000000000	0.00000000000000	0.00000000000000	0.00000000000000	
8.41664000000000	2.71993100000000	717.24374499999999	28.52044800000000	0.17797000000000	0.00000000000000	0.07481900000000	0.00000000000000	0.00000000000000	0.00000000000000	0.00000000000000	0.00000000000000	0.00000000000000	0.00000000000000	10.66498400000000	0.00000000000000	0.00000000000000	0.00000000000000	0.00000000000000	
8.41830400000000	2.09260900000000	718.37728600000003	28.64539000000000	0.17687600000000	0.00000000000000	0.07484000000000	0.00000000000000	0.00000000000000	0.00000000000000	0.00000000000000	0.00000000000000	0.00000000000000	0.00000000000000	10.75939600000000	0.00000000000000	0.00000000000000	0.00000000000000	0.00000000000000	
8.41997900000000	1.45213400000000	719.54407400000002	28.77476800000000	0.17576700000000	0.00000000000000	0.07486400000000	0.00000000000000	0.00000000000000	0.00000000000000	0.00000000000000	0.00000000000000	0.00000000000000	0.00000000000000	10.85618500000000	0.00000000000000	0.00000000000000	0.00000000000000	0.00000000000000	
8.42163600000000	0.79861800000000	720.74484199999995	28.90859400000000	0.17464100000000	0.00000000000000	0.07489100000000	0.00000000000000	0.00000000000000	0.00000000000000	0.00000000000000	0.00000000000000	0.00000000000000	0.00000000000000	10.95526200000000	0.00000000000000	0.00000000000000	0.00000000000000	0.00000000000000	
8.42330400000000	0.13221900000000	721.98029799999995	29.04688300000000	0.17349900000000	0.00000000000000	0.07492100000000	0.00000000000000	0.00000000000000	0.00000000000000	0.00000000000000	0.00000000000000	0.00000000000000	0.00000000000000	11.05653500000000	0.00000000000000	0.00000000000000	0.00000000000000	0.00000000000000	
8.42497100000000	-0.54686100000000	723.25111600000002	29.18965000000000	0.17234200000000	0.00000000000000	0.07495400000000	0.00000000000000	0.00000000000000	0.00000000000000	0.00000000000000	0.00000000000000	0.00000000000000	0.00000000000000	11.15991000000000	0.00000000000000	0.00000000000000	0.00000000000000	0.00000000000000	
8.42663400000000	-1.23837800000000	724.55792399999996	29.33691700000000	0.17117000000000	0.00000000000000	0.07499000000000	0.00000000000000	0.00000000000000	0.00000000000000	0.00000000000000	0.00000000000000	0.00000000000000	0.00000000000000	11.26529000000000	0.00000000000000	0.00000000000000	0.00000000000000	0.00000000000000	
8.42830200000000	-1.94204600000000	725.90129899999999	29.48870400000000	0.16998500000000	0.00000000000000	0.07502900000000	0.00000000000000	0.00000000000000	0.00000000000000	0.00000000000000	0.00000000000000	0.00000000000000	0.00000000000000	11.37257600000000	0.00000000000000	0.00000000000000	0.00000000000000	0.00000000000000	
8.42997200000000	-2.65753400000000	727.28175399999998	29.64503500000000	0.16878600000000	0.00000000000000	0.07507100000000	0.00000000000000	0.00000000000000	0.00000000000000	0.00000000000000	0.00000000000000	0.00000000000000	0.00000000000000	11.48166600000000	0.00000000000000	0.00000000000000	0.00000000000000	0.00000000000000	
8.43163900000000	-3.38447300000000	728.69973200000004	29.80593500000000	0.16757500000000	0.00000000000000	0.07511700000000	0.00000000000000	0.00000000000000	0.00000000000000	0.00000000000000	0.00000000000000	0.00000000000000	0.00000000000000	11.59245500000000	0.00000000000000	0.00000000000000	0.00000000000000	0.00000000000000	
8.43330500000000	-4.12245200000000	730.15559699999994	29.97143100000000	0.16635300000000	0.00000000000000	0.07516600000000	0.00000000000000	0.00000000000000	0.00000000000000	0.00000000000000	0.00000000000000	0.00000000000000	0.00000000000000	11.70483700000000	0.00000000000000	0.00000000000000	0.00000000000000	0.00000000000000	
8.43497100000000	-4.87102100000000	731.64962400000002	30.14154700000000	0.16512100000000	0.00000000000000	0.07521800000000	0.00000000000000	0.00000000000000	0.00000000000000	0.00000000000000	0.00000000000000	0.00000000000000	0.00000000000000	11.81870000000000	0.00000000000000	0.00000000000000	0.00000000000000	0.00000000000000	
8.43663500000000	-5.62969300000000	733.18199300000003	30.31631100000000	0.16387900000000	0.00000000000000	0.07527300000000	0.00000000000000	0.00000000000000	0.00000000000000	0.00000000000000	0.00000000000000	0.00000000000000	0.00000000000000	11.93393300000000	0.00000000000000	0.00000000000000	0.00000000000000	0.00000000000000	
8.43830500000000	-6.39794300000000	734.75278000000003	30.49574800000000	0.16263100000000	0.00000000000000	0.07533200000000	0.00000000000000	0.00000000000000	0.00000000000000	0.00000000000000	0.00000000000000	0.00000000000000	0.00000000000000	12.05042100000000	0.00000000000000	0.00000000000000	0.00000000000000	0.00000000000000	
8.43996700000000	-7.17521200000000	736.36195299999997	30.67988400000000	0.16137600000000	0.00000000000000	0.07539400000000	0.00000000000000	0.00000000000000	0.00000000000000	0.00000000000000	0.00000000000000	0.00000000000000	0.00000000000000	12.16804500000000	0.00000000000000	0.00000000000000	0.00000000000000	0.00000000000000	
8.44163600000000	-7.96090900000000	738.00936000000002	30.86874300000000	0.16011500000000	0.00000000000000	0.07545900000000	0.00000000000000	0.00000000000000	0.00000000000000	0.00000000000000	0.00000000000000	0.00000000000000	0.00000000000000	12.28668700000000	0.00000000000000	0.00000000000000	0.00000000000000	0.00000000000000	
8.44329900000000	-8.75441100000000	739.69472900000005	31.06234600000000	0.15885200000000	0.00000000000000	0.07552800000000	0.00000000000000	0.00000000000000	0.00000000000000	0.00000000000000	0.00000000000000	0.00000000000000	0.00000000000000	12.40622400000000	0.00000000000000	0.00000000000000	0.00000000000000	0.00000000000000	
8.44496500000000	-9.55506300000000	741.41765599999997	31.26071400000000	0.15758600000000	0.00000000000000	0.07560000000000	0.00000000000000	0.00000000000000	0.00000000000000	0.00000000000000	0.00000000000000	0.00000000000000	0.00000000000000	12.52653100000000	0.00000000000000	0.00000000000000	0.00000000000000	0.00000000000000	
8.44663200000000	-10.36218700000000	743.17760799999996	31.46386600000000	0.15631900000000	0.00000000000000	0.07567500000000	0.00000000000000	0.00000000000000	0.00000000000000	0.00000000000000	0.00000000000000	0.00000000000000	0.00000000000000	12.64748300000000	0.00000000000000	0.00000000000000	0.00000000000000	0.00000000000000	
8.44830200000000	-11.17507600000000	744.97391000000005	31.67181400000000	0.15505300000000	0.00000000000000	0.07575300000000	0.00000000000000	0.00000000000000	0.00000000000000	0.00000000000000	0.00000000000000	0.00000000000000	0.00000000000000	12.76894900000000	0.00000000000000	0.00000000000000	0.00000000000000	0.00000000000000	
8.44997000000000	-11.99300200000000	746.80574600000000	31.88457200000000	0.15378900000000	0.00000000000000	0.07583400000000	0.00000000000000	0.00000000000000	0.00000000000000	0.00000000000000	0.00000000000000	0.00000000000000	0.00000000000000	12.89079900000000	0.00000000000000	0.00000000000000	0.00000000000000	0.00000000000000	
8.45163400000000	-12.81521600000000	748.67215799999997	32.10214500000000	0.15252900000000	0.00000000000000	0.07591800000000	0.00000000000000	0.00000000000000	0.00000000000000	0.00000000000000	0.00000000000000	0.00000000000000	0.00000000000000	13.01290200000000	0.00000000000000	0.00000000000000	0.00000000000000	0.00000000000000	
